<svg width="24" height="24" viewBox="0 0 24 24" fill="none" xmlns="http://www.w3.org/2000/svg">
<path d="M1.05066 3.15164L19.9604 22.0614C20.5403 22.6413 21.4816 22.6413 22.0615 22.0614C22.6414 21.4815 22.6414 20.5402 22.0615 19.9603L3.15175 1.05055C2.57185 0.470661 1.63059 0.470627 1.05066 1.05055C0.470734 1.63048 0.470768 2.57175 1.05066 3.15164Z" fill="#313034"/>
<path d="M3.15176 22.0614L22.0615 3.15166C22.6414 2.57177 22.6415 1.6305 22.0616 1.05061C21.4816 0.470681 20.5404 0.470715 19.9604 1.05057L1.05067 19.9603C0.47078 20.5402 0.470745 21.4815 1.05067 22.0614C1.6306 22.6414 2.57187 22.6413 3.15176 22.0614Z" fill="#313034"/>
</svg>
