<svg width="24" height="24" viewBox="0 0 24 24" fill="none" xmlns="http://www.w3.org/2000/svg">
<path d="M3.51926 0H0.70756C0.319388 0 0.00466919 0.314719 0.00466919 0.702937V3.56152C0.00466919 3.94973 0.319341 4.26445 0.707607 4.26445C1.09583 4.26445 1.41054 3.94973 1.41054 3.56152V1.40587H3.51931C3.90753 1.40587 4.22225 1.09116 4.22225 0.702937C4.2222 0.314719 3.90748 0 3.51926 0Z" fill="#313034"/>
<path d="M23.2937 0H20.482C20.0938 0 19.7791 0.314719 19.7791 0.702937C19.7791 1.09116 20.0937 1.40587 20.482 1.40587H22.5908V3.56152C22.5908 3.94973 22.9055 4.26445 23.2937 4.26445C23.6819 4.26445 23.9966 3.94973 23.9966 3.56152V0.702937C23.9966 0.314719 23.6819 0 23.2937 0Z" fill="#313034"/>
<path d="M3.51803 22.5874H1.40926V20.4317C1.40926 20.0435 1.09454 19.7288 0.706325 19.7288C0.318106 19.7288 0.00338745 20.0435 0.00338745 20.4317V23.2903C0.00338745 23.6785 0.318059 23.9932 0.706325 23.9932H3.51803C3.90625 23.9932 4.22097 23.6785 4.22097 23.2903C4.22097 22.9021 3.90625 22.5874 3.51803 22.5874Z" fill="#313034"/>
<path d="M23.2937 19.7288C22.9055 19.7288 22.5908 20.0435 22.5908 20.4317V22.5874H20.482C20.0938 22.5874 19.7791 22.9021 19.7791 23.2903C19.7791 23.6785 20.0938 23.9932 20.482 23.9932H23.2937C23.6819 23.9932 23.9966 23.6785 23.9966 23.2903V20.4317C23.9966 20.0435 23.6819 19.7288 23.2937 19.7288Z" fill="#313034"/>
<path d="M22.1424 5.76671L12.3524 0.0947414C12.1344 -0.0315398 11.8655 -0.0315398 11.6476 0.0947414L1.85363 5.76666C1.63773 5.89177 1.50296 6.12469 1.50296 6.37444C1.50296 6.37585 1.5031 6.37726 1.5031 6.37862V17.6251C1.5031 17.8772 1.64012 18.1132 1.86076 18.2374L11.6476 23.9053C11.7531 23.9664 11.8785 24 12.0001 24C12.1269 24 12.2509 23.9641 12.3525 23.9053L22.1354 18.2373C22.137 18.2364 22.1386 18.2355 22.1402 18.2345C22.367 18.0709 22.4892 17.9334 22.4926 17.6335C22.4927 17.6307 22.4929 17.628 22.4929 17.6251V6.37871C22.4929 6.3773 22.493 6.3759 22.493 6.37454C22.493 6.12455 22.3582 5.89158 22.1424 5.76671ZM11.2971 22.0775L3.61773 17.6282L9.53799 14.2331C9.87479 14.04 9.99123 13.6104 9.79805 13.2737C9.60498 12.9369 9.17541 12.8205 8.83862 13.0136L2.90884 16.4117V7.58949L11.2971 12.4068V22.0775ZM12 11.1893L3.61669 6.37243L12 1.51534L20.3833 6.37243L12 11.1893ZM21.0916 16.4117L15.1614 13.0136C14.8246 12.8205 14.3951 12.9368 14.202 13.2736C14.0088 13.6104 14.1252 14.04 14.462 14.2331L20.3823 17.6281L12.7029 22.0774V12.4068L21.0916 7.58949V16.4117H21.0916Z" fill="#313034"/>
</svg>
