<svg width="32" height="32" viewBox="0 0 32 32" fill="none" xmlns="http://www.w3.org/2000/svg">
<path d="M4.69235 0H0.943413C0.42585 0 0.00622559 0.419625 0.00622559 0.93725V4.74869C0.00622559 5.26631 0.425788 5.68594 0.943475 5.68594C1.4611 5.68594 1.88073 5.26631 1.88073 4.74869V1.8745H4.69241C5.21004 1.8745 5.62966 1.45487 5.62966 0.93725C5.6296 0.419625 5.20997 0 4.69235 0Z" fill="#313034"/>
<path d="M31.0583 0H27.3093C26.7917 0 26.3721 0.419625 26.3721 0.93725C26.3721 1.45487 26.7916 1.8745 27.3093 1.8745H30.121V4.74869C30.121 5.26631 30.5406 5.68594 31.0583 5.68594C31.5759 5.68594 31.9955 5.26631 31.9955 4.74869V0.93725C31.9955 0.419625 31.5759 0 31.0583 0Z" fill="#313034"/>
<path d="M4.69069 30.1165H1.879V27.2423C1.879 26.7247 1.45938 26.3051 0.941751 26.3051C0.424126 26.3051 0.00450134 26.7247 0.00450134 27.2423V31.0537C0.00450134 31.5714 0.424064 31.991 0.941751 31.991H4.69069C5.20831 31.991 5.62794 31.5714 5.62794 31.0537C5.62794 30.5361 5.20831 30.1165 4.69069 30.1165Z" fill="#313034"/>
<path d="M31.0583 26.3051C30.5406 26.3051 30.121 26.7247 30.121 27.2423V30.1165H27.3093C26.7917 30.1165 26.3721 30.5361 26.3721 31.0537C26.3721 31.5714 26.7917 31.991 27.3093 31.991H31.0583C31.5759 31.991 31.9955 31.5714 31.9955 31.0537V27.2423C31.9955 26.7247 31.5759 26.3051 31.0583 26.3051Z" fill="#313034"/>
<path d="M29.5231 7.68891L16.4698 0.126281C16.1792 -0.0420938 15.8207 -0.0420938 15.5301 0.126281L2.4715 7.68884C2.18362 7.85566 2.00394 8.16622 2.00394 8.49922C2.00394 8.50109 2.00412 8.50297 2.00412 8.50478V23.5C2.00412 23.8362 2.18681 24.1508 2.481 24.3165L15.5302 31.8737C15.6707 31.9552 15.838 32 16.0001 32C16.1692 32 16.3346 31.9521 16.4699 31.8737L29.5138 24.3164C29.516 24.3152 29.5181 24.3139 29.5203 24.3127C29.8226 24.0945 29.9856 23.9112 29.9901 23.5113C29.9902 23.5076 29.9905 23.5039 29.9905 23.5002V8.5049C29.9905 8.50303 29.9907 8.50116 29.9907 8.49934C29.9907 8.16603 29.8109 7.85541 29.5231 7.68891ZM15.0627 29.4366L4.82362 23.5043L12.7173 18.9775C13.1664 18.72 13.3216 18.1472 13.0641 17.6982C12.8066 17.2492 12.2339 17.094 11.7848 17.3515L3.87844 21.8822V10.1193L15.0627 16.5424V29.4366ZM16 14.9191L4.82225 8.49653L16 2.02041L27.1777 8.49653L16 14.9191ZM28.1221 21.8822L20.2152 17.3514C19.7662 17.094 19.1934 17.2491 18.9359 17.6982C18.6784 18.1472 18.8336 18.7199 19.2827 18.9774L27.1764 23.5042L16.9372 29.4365V16.5424L28.1221 10.1193V21.8822H28.1221Z" fill="#313034"/>
</svg>
