<svg width="52" height="52" viewBox="0 0 52 52" fill="none" xmlns="http://www.w3.org/2000/svg">
<path d="M7.62586 0H1.53384C0.692801 0 0.01091 0.681891 0.01091 1.52303V7.71662C0.01091 8.55776 0.692699 9.23965 1.53394 9.23965C2.37508 9.23965 3.05697 8.55776 3.05697 7.71662V3.04606H7.62596C8.4671 3.04606 9.14899 2.36417 9.14899 1.52303C9.14889 0.681891 8.467 0 7.62586 0Z" fill="#313034"/>
<path d="M50.4697 0H44.3776C43.5365 0 42.8546 0.681891 42.8546 1.52303C42.8546 2.36417 43.5364 3.04606 44.3776 3.04606H48.9466V7.71662C48.9466 8.55776 49.6285 9.23965 50.4697 9.23965C51.3108 9.23965 51.9927 8.55776 51.9927 7.71662V1.52303C51.9927 0.681891 51.3108 0 50.4697 0Z" fill="#313034"/>
<path d="M7.62237 48.9393H3.05338V44.2687C3.05338 43.4276 2.37149 42.7457 1.53035 42.7457C0.689207 42.7457 0.00731659 43.4276 0.00731659 44.2687V50.4623C0.00731659 51.3034 0.689106 51.9853 1.53035 51.9853H7.62237C8.46351 51.9853 9.1454 51.3034 9.1454 50.4623C9.1454 49.6211 8.46351 48.9393 7.62237 48.9393Z" fill="#313034"/>
<path d="M50.4697 42.7457C49.6285 42.7457 48.9466 43.4276 48.9466 44.2687V48.9393H44.3776C43.5365 48.9393 42.8546 49.6211 42.8546 50.4623C42.8546 51.3034 43.5365 51.9853 44.3776 51.9853H50.4697C51.3108 51.9853 51.9927 51.3034 51.9927 50.4623V44.2687C51.9927 43.4276 51.3108 42.7457 50.4697 42.7457Z" fill="#313034"/>
<path d="M47.9751 12.4945L26.7634 0.205207C26.2913 -0.0684023 25.7086 -0.0684023 25.2365 0.205207L4.01619 12.4944C3.54839 12.7654 3.2564 13.2701 3.2564 13.8112C3.2564 13.8143 3.25671 13.8173 3.25671 13.8203V38.1875C3.25671 38.7339 3.55357 39.2451 4.03163 39.5143L25.2366 51.7948C25.465 51.9271 25.7368 51.9999 26.0001 51.9999C26.275 51.9999 26.5437 51.9221 26.7637 51.7948L47.96 39.5142C47.9635 39.5121 47.967 39.5101 47.9705 39.5081C48.4618 39.1536 48.7265 38.8557 48.734 38.2059C48.7341 38.1998 48.7346 38.1938 48.7346 38.1878V13.8205C48.7346 13.8174 48.7349 13.8144 48.7349 13.8114C48.7349 13.2698 48.4427 12.765 47.9751 12.4945ZM24.477 47.8345L7.83839 38.1945L20.6656 30.8384C21.3954 30.42 21.6476 29.4892 21.2291 28.7596C20.8108 28.0299 19.8801 27.7777 19.1503 28.1961L6.30246 35.5586V16.4438L24.477 26.8814V47.8345ZM26 24.2435L7.83616 13.8069L26 3.28316L44.1638 13.8069L26 24.2435ZM45.6985 35.5586L32.8497 28.196C32.1201 27.7777 31.1893 28.0298 30.7709 28.7595C30.3524 29.4892 30.6046 30.4198 31.3344 30.8383L44.1616 38.1943L27.5229 47.8343V26.8814L45.6984 16.4438V35.5586H45.6985Z" fill="#313034"/>
</svg>
