<svg width="16" height="16" viewBox="0 0 16 16" fill="none" xmlns="http://www.w3.org/2000/svg">
<path fill-rule="evenodd" clip-rule="evenodd" d="M11.2986 0.0502569C9.82665 -0.0184086 6.18071 -0.0150753 4.7074 0.0502569C3.41276 0.110922 2.27078 0.423584 1.35013 1.34423C-0.0267213 2.72108 -0.0140206 4.52606 0.00387413 7.06919C0.00597689 7.36803 0.00815138 7.67706 0.00815138 7.99678C0.00815138 8.29603 0.00654866 8.58522 0.00499879 8.86488C-0.00956909 11.4935 -0.0194683 13.2797 1.35013 14.6493C2.7295 16.0281 4.55438 16.0145 7.06878 15.9959C7.37004 15.9936 7.6812 15.9913 8.00268 15.9913H8.04609C11.0953 15.9913 12.1544 15.9913 13.2393 15.5713C14.7212 14.996 15.8399 13.6714 15.9492 11.2921C16.0185 9.81942 16.0145 6.17415 15.9492 4.70084C15.8172 1.89222 14.3099 0.188921 11.2986 0.0502569ZM13.6286 13.6314C12.6997 14.5603 11.4394 14.5574 8.71734 14.5511C8.48368 14.5506 8.23926 14.55 7.98335 14.55L7.52548 14.5502C4.52496 14.5524 3.26749 14.5533 2.33811 13.6214C1.37123 12.6591 1.38722 11.195 1.41043 9.07009C1.41418 8.72629 1.41813 8.36519 1.41813 7.98612C1.41813 7.66467 1.41525 7.35107 1.41245 7.04628L1.41245 7.04624C1.38318 3.85859 1.36276 1.6337 4.73674 1.4609L4.77499 1.45955C5.59408 1.4306 5.86849 1.4209 7.97401 1.4209L8.00401 1.4409C8.30842 1.4409 8.60722 1.43817 8.89922 1.4355C12.015 1.40702 14.3582 1.3856 14.5112 4.76484C14.5492 5.60816 14.5579 5.86149 14.5579 7.99612C14.5579 8.18747 14.558 8.37224 14.5582 8.55074L14.5582 8.55243C14.561 11.4462 14.5621 12.6934 13.6286 13.6314ZM8.0027 3.89143C5.73408 3.89143 3.89744 5.73007 3.89744 7.99669C3.89744 10.2653 5.73608 12.102 8.0027 12.102C10.2713 12.102 12.108 10.2633 12.108 7.99669C12.108 5.72807 10.2693 3.89143 8.0027 3.89143ZM8.0027 10.6613C6.53006 10.6613 5.33808 9.46867 5.33808 7.99669C5.33808 6.52472 6.53073 5.33207 8.0027 5.33207C9.47468 5.33207 10.6673 6.52472 10.6673 7.99669C10.668 9.46867 9.47534 10.6613 8.0027 10.6613ZM13.23 3.72942C13.23 4.25923 12.8005 4.68873 12.2706 4.68873C11.7408 4.68873 11.3113 4.25923 11.3113 3.72942C11.3113 3.1996 11.7408 2.7701 12.2706 2.7701C12.8005 2.7701 13.23 3.1996 13.23 3.72942Z" fill="#313034"/>
</svg>
