<svg width="16" height="16" viewBox="0 0 16 16" fill="none" xmlns="http://www.w3.org/2000/svg">
<path fill-rule="evenodd" clip-rule="evenodd" d="M0 1.92133C0 0.860666 0.860666 0 1.92133 0C2.98133 0 3.842 0.860666 3.84266 1.92133C3.84266 2.982 2.982 3.86066 1.92133 3.86066C0.860666 3.86066 0 2.982 0 1.92133ZM15.996 16V15.9993H16V10.1313C16 7.26067 15.382 5.04934 12.026 5.04934C10.4127 5.04934 9.32999 5.93467 8.88799 6.774H8.84132V5.31734H5.65932V15.9993H8.97266V10.71C8.97266 9.31734 9.23666 7.97067 10.9613 7.97067C12.6607 7.97067 12.686 9.56 12.686 10.7993V16H15.996ZM0.264008 5.318H3.58134V16H0.264008V5.318Z" fill="#313034"/>
</svg>
