<svg width="84" height="30" viewBox="0 0 84 30" fill="none" xmlns="http://www.w3.org/2000/svg">
<g clip-path="url(#clip0)">
<path d="M20.3868 0C19.8364 0 6.32152 0 5.70462 0C2.56317 0 0.0101545 2.55651 0.0101545 5.71176C0.0101545 24.7763 -0.0183179 23.4743 0.0481176 23.7309C0.209461 26.7341 2.70553 29.129 5.74258 29.129C8.88403 29.129 11.4465 26.5725 11.4465 23.4173V20.9368H14.2843C19.2669 20.9368 21.5542 14.6358 17.682 11.4425C18.5267 11.4425 20.4912 11.4615 20.7095 11.4045C23.7086 11.243 26.1003 8.74346 26.1003 5.70226C26.0813 2.55651 23.5283 0 20.3868 0ZM18.4223 15.5767C18.4223 15.5862 18.4223 15.5862 18.4223 15.5767C18.4223 15.5862 18.4223 15.5862 18.4223 15.5767C18.4223 17.8766 16.5716 19.7298 14.2748 19.7298C11.6648 19.7298 6.57777 19.7013 5.60022 19.7298C1.50021 19.8439 1.20599 23.2747 1.20599 23.2747V7.88812C1.20599 7.88812 1.50021 11.3095 5.60022 11.433C6.60624 11.4615 8.84606 11.433 14.2748 11.433C16.5716 11.433 18.4223 13.2863 18.4223 15.5767Z" fill="#5167E5"/>
</g>
<g clip-path="url(#clip1)">
<path d="M38.9516 22.8081V6.89636H51.6242V10.2796H42.8727V13.2533H48.7103V16.5292H42.8727V22.7984H38.9516V22.8081Z" fill="#5167E5"/>
<path d="M56.8653 6.09683V22.8081H53.1692V6.89632L56.8653 6.09683Z" fill="#5167E5"/>
<path d="M70.2029 21.2091C69.4402 21.8429 68.6677 22.3109 67.8659 22.5936C67.0641 22.8861 66.1645 23.0226 65.1671 23.0226C64.2577 23.0226 63.3972 22.8666 62.5954 22.5448C61.7936 22.2231 61.0896 21.7844 60.5126 21.2286C59.9259 20.6729 59.4664 20.0099 59.1241 19.2396C58.7819 18.4792 58.6157 17.6602 58.6157 16.7924C58.6157 15.9247 58.7819 15.1155 59.1046 14.3452C59.4273 13.5847 59.8771 12.9217 60.4344 12.3563C60.9918 11.8005 61.6567 11.352 62.4292 11.04C63.1919 10.7183 64.023 10.5623 64.9031 10.5623C65.7831 10.5623 66.5947 10.728 67.3379 11.0595C68.081 11.391 68.7264 11.8493 69.2642 12.4245C69.802 12.9997 70.2224 13.692 70.5256 14.5012C70.8287 15.3105 70.9851 16.1879 70.9851 17.1239V18.0307H62.3901C62.6345 18.5962 63.0159 19.0544 63.5341 19.4054C64.0524 19.7661 64.6586 19.9416 65.3627 19.9416C65.8613 19.9416 66.3209 19.8636 66.7316 19.7076C67.1423 19.5516 67.4943 19.3274 67.7779 19.0349L70.2029 21.2091ZM64.8249 13.575C64.2186 13.575 63.6906 13.7407 63.2506 14.0722C62.8105 14.4037 62.4976 14.8717 62.3118 15.486H67.3476C67.1521 14.9107 66.8294 14.4525 66.3796 14.1015C65.9396 13.7505 65.4213 13.575 64.8249 13.575Z" fill="#5167E5"/>
<path d="M70.5451 22.8081L75.1311 16.7144L70.6136 10.7768H74.8964L77.2628 14.004L79.6095 10.7768H83.736L79.2869 16.6657L83.9804 22.7983H79.6975L77.1845 19.3664L74.6813 22.7983H70.5451V22.8081Z" fill="#5167E5"/>
</g>
<defs>
<clipPath id="clip0">
<rect width="26.0806" height="29.129" fill="white"/>
</clipPath>
<clipPath id="clip1">
<rect width="45.0484" height="16.9355" fill="white" transform="translate(38.9516 6.09683)"/>
</clipPath>
</defs>
</svg>
