<svg width="26" height="22" viewBox="0 0 26 22" fill="none" xmlns="http://www.w3.org/2000/svg">
<path d="M1.53763 3L24.4624 3C25.3111 3 26 2.32804 26 1.50005C26 0.672011 25.3111 5.04972e-05 24.4624 -1.34424e-07L1.53763 -2.13857e-06C0.688871 -2.21277e-06 -5.87447e-08 0.671958 -1.31134e-07 1.5C-2.03524e-07 2.32804 0.688871 3 1.53763 3Z" fill="#313034"/>
<path d="M1.53763 22L24.4624 22C25.3111 22 26 21.328 26 20.5001C26 19.672 25.3111 19.0001 24.4624 19L1.53763 19C0.688871 19 -5.87447e-08 19.672 -1.31134e-07 20.5C-2.03524e-07 21.328 0.688871 22 1.53763 22Z" fill="#313034"/>
<path d="M9.55905 13L24.4408 13C25.3014 13 25.9999 12.328 25.9999 11.5001C25.9999 10.672 25.3014 10.0001 24.4408 10L9.55905 10C8.69847 10 8 10.672 8 11.5C8 12.328 8.69847 13 9.55905 13Z" fill="#313034"/>
</svg>
